<svg width="555" height="92" viewBox="0 0 555 92" fill="none" xmlns="http://www.w3.org/2000/svg">
<g clip-path="url(#clip0_2621_10327)">
<path d="M81.3755 63.0347L66.1957 19.9946H49.8397L34.3904 63.0469L21.1464 19.9946H0L24.5891 89.1062H43.8119L58.0361 47.2668L72.8116 89.1062H91.1646L116.048 19.9946H94.7543L81.3755 63.0347Z" fill="white"/>
<path d="M220.628 24.3439V19.9822H201.724V89.094H220.628V54.1893C220.628 47.598 221.853 43.8854 225.026 41.3371C228.763 38.2987 235.44 36.8899 246.062 36.8899H246.724V18.708H246.05C233.247 18.708 226.84 20.0926 220.628 24.3439Z" fill="white"/>
<path d="M376.911 24.2951C371.613 20.5361 365.248 18.5777 358.754 18.7083C349.062 18.6516 339.74 22.4257 332.817 29.2083C329.433 32.5487 326.746 36.5278 324.912 40.915C323.078 45.3022 322.133 50.01 322.133 54.7651C322.133 59.5202 323.078 64.228 324.912 68.6152C326.746 73.0024 329.433 76.9815 332.817 80.3219C336.228 83.7137 340.275 86.399 344.726 88.2239C349.176 90.0487 353.943 90.9775 358.754 90.9566C365.251 91.1225 371.626 89.1657 376.911 85.3823V89.0578H395.803V19.946H376.911V24.2951ZM371.594 42.2197C373.269 43.8504 374.602 45.7987 375.515 47.9507C376.428 50.1028 376.902 52.4154 376.911 54.7532C376.907 57.1115 376.434 59.445 375.522 61.6196C374.609 63.7941 373.274 65.7663 371.594 67.4212C369.914 69.1192 367.915 70.4671 365.711 71.3862C363.507 72.3053 361.142 72.7774 358.754 72.7753C353.989 72.7305 349.432 70.8168 346.064 67.4463C342.696 64.0758 340.785 59.518 340.744 54.7532C340.78 51.1946 341.868 47.7258 343.87 44.7837C345.872 41.8416 348.7 39.5571 351.997 38.2176C355.294 36.8781 358.914 36.5436 362.4 37.2557C365.887 37.9677 369.086 39.6948 371.594 42.2197Z" fill="white"/>
<path d="M464.558 25.8997C459.657 21.195 452.76 18.7078 444.686 18.7078C438.488 18.5139 432.418 20.4996 427.534 24.3192V19.982H408.642V89.0938H427.534V51.8979C427.534 46.2132 428.93 42.0966 431.675 39.6463C433.831 37.7595 436.82 36.8406 440.839 36.8406C444.857 36.8406 447.835 37.7838 450.003 39.7318C452.748 42.1822 454.144 46.3721 454.144 52.1426V89.0448H473.048V49.2885C473.048 39.1564 470.194 31.2291 464.558 25.8997Z" fill="white"/>
<path d="M536.108 19.9822V24.2948C530.807 20.5341 524.437 18.5756 517.939 18.708C508.247 18.6513 498.925 22.4254 492.002 29.208C488.618 32.5484 485.931 36.5275 484.097 40.9147C482.263 45.3019 481.318 50.0097 481.318 54.7648C481.318 59.5199 482.263 64.2277 484.097 68.6149C485.931 73.0021 488.618 76.9812 492.002 80.3216C495.413 83.7133 499.46 86.3987 503.911 88.2235C508.362 90.0484 513.129 90.9771 517.939 90.9562C524.44 91.1204 530.818 89.1639 536.108 85.382V89.0575H555V19.9457L536.108 19.9822ZM536.108 54.7528C536.104 57.1112 535.632 59.4447 534.719 61.6193C533.806 63.7938 532.471 65.766 530.791 67.4209C529.109 69.1193 527.108 70.4668 524.902 71.3859C522.695 72.3049 520.329 72.7774 517.939 72.775C513.174 72.7302 508.617 70.8165 505.249 67.446C501.881 64.0755 499.971 59.5176 499.929 54.7528C499.969 51.1943 501.059 47.7268 503.063 44.7858C505.066 41.8448 507.895 39.5611 511.192 38.2221C514.489 36.883 518.108 36.5484 521.595 37.2595C525.082 37.9706 528.281 39.6962 530.791 42.2194C532.466 43.8501 533.799 45.7983 534.712 47.9504C535.625 50.1025 536.1 52.4151 536.108 54.7528Z" fill="white"/>
<path d="M257.406 0H276.36L276.262 49.1047L298.18 21.8448H323.516L295.729 55.4758L323.835 88.8616H298.351L276.752 59.5677L276.36 88.8616H257.406V0Z" fill="white"/>
<path d="M173.667 54.0176C173.667 54.2014 173.777 54.3729 173.826 54.5566C173.875 54.7404 173.961 54.9978 174.022 55.2183L174.169 55.7573C174.231 55.9901 174.28 56.2107 174.341 56.4434C174.402 56.6762 174.427 56.7987 174.476 56.9824L174.623 57.6806L174.733 58.2076L174.88 58.9674C174.88 59.1266 174.88 59.2858 174.966 59.4328C175.051 59.5798 175.064 60.0696 175.1 60.3881C175.1 60.4862 175.1 60.5845 175.1 60.6825L175.247 61.9076C175.247 62.0179 175.247 62.1282 175.247 62.2385C175.247 62.5448 175.247 62.863 175.333 63.1693C175.419 63.4756 175.333 63.4883 175.333 63.6353V64.2844C175.811 63.9781 176.289 63.6598 176.754 63.329L176.926 63.1938C177.343 62.8998 177.747 62.5935 178.151 62.2749L178.617 61.8951C178.911 61.65 179.205 61.4177 179.499 61.1605C179.793 60.9032 179.842 60.8537 180.013 60.6944L180.797 59.9963L181.324 59.4818L182.023 58.7711L182.549 58.2196L183.199 57.4969L183.701 56.9089L184.314 56.1736L184.792 55.5491C184.988 55.3041 185.171 55.0466 185.355 54.7894C185.539 54.5321 185.661 54.3605 185.808 54.1522C185.955 53.944 186.176 53.6255 186.347 53.356C186.519 53.0865 186.629 52.9269 186.764 52.7063L187.266 51.8856C187.401 51.665 187.536 51.4447 187.658 51.212C187.781 50.9792 187.977 50.6481 188.124 50.3541C188.271 50.0601 188.369 49.9133 188.479 49.6805L188.92 48.7862C189.018 48.5534 189.129 48.3325 189.227 48.112C189.325 47.8914 189.508 47.4632 189.643 47.1446C189.778 46.8261 189.827 46.7155 189.913 46.495L189.986 46.2987C188.386 39.6067 184.939 33.4987 180.038 28.669C178.124 28.3751 176.191 28.2272 174.255 28.2275H173.03H172.638H171.854H171.388L170.665 28.2892H170.175L169.489 28.3627L168.999 28.4363L168.325 28.5338L167.823 28.6074L167.149 28.73L166.659 28.8282L165.985 28.9753L165.52 29.0854C165.276 29.1336 165.034 29.1949 164.797 29.2691L164.368 29.3672L163.51 29.6124L163.241 29.698L162.126 30.0533L161.832 30.1514L161.023 30.4452L160.607 30.6049L159.921 30.8741L159.48 31.0577L158.843 31.3395L158.389 31.5477L157.777 31.842L157.323 32.0628L157.042 32.1974L157.36 32.4181L157.826 32.7244L158.414 33.1408L158.867 33.459L159.455 33.8879L159.872 34.2188C160.08 34.3675 160.28 34.5271 160.472 34.6968L160.864 35.003L161.513 35.5666L161.82 35.8238L162.726 36.6571L163.008 36.9263L163.621 37.527L163.988 37.9068C164.16 38.0784 164.331 38.2495 164.491 38.4333L164.87 38.8377L165.336 39.3521L165.703 39.7936C165.85 39.9529 165.997 40.124 166.132 40.2955L166.512 40.749L166.916 41.276C167.039 41.4231 167.149 41.5822 167.272 41.7415L167.664 42.2679L168.007 42.7459L168.387 43.2974L168.705 43.7754L169.073 44.3389L169.379 44.8163L169.734 45.417C169.82 45.5762 169.918 45.7354 170.016 45.8824L170.396 46.5805L170.616 46.9729L171.168 48.0509C171.241 48.1857 171.302 48.3206 171.364 48.4553C171.425 48.5901 171.597 48.933 171.707 49.178L171.915 49.656L172.209 50.3176C172.209 50.4891 172.344 50.6606 172.417 50.8321C172.491 51.0036 172.589 51.2609 172.662 51.4692L172.871 52.0082L173.091 52.6453C173.163 52.8211 173.225 53.001 173.275 53.1843L173.667 54.0176Z" fill="white"/>
<path d="M135.601 26.0225H136.888H137.317H138.174H138.701L139.461 26.0961L140.012 26.1571L140.747 26.2432L141.311 26.3168L142.021 26.4269L142.585 26.525L143.283 26.647L143.859 26.7697L144.545 26.9168L145.121 27.0514L145.782 27.2231L146.358 27.3822L147.02 27.5785L147.596 27.7501L148.245 27.9583L148.821 28.1545L149.458 28.3873L150.022 28.5954L150.659 28.8527L151.21 29.0854L151.835 29.3552L152.386 29.5999L152.999 29.8942L153.55 30.1634L154.15 30.4697L154.689 30.764L154.983 30.9231L155.29 30.764L155.817 30.4697L156.429 30.1634L156.968 29.8942L157.581 29.5999L158.132 29.3552L158.757 29.0854L159.321 28.8527L159.945 28.5954L160.509 28.3873L161.158 28.1545L161.722 27.9583L162.371 27.7501L162.947 27.5785L163.609 27.3822L164.184 27.2231L164.858 27.0514L165.434 26.9168L166.108 26.7697L166.684 26.647L167.382 26.525L167.946 26.4269L168.669 26.3168L169.22 26.2432L169.955 26.1571L170.506 26.0961L171.278 26.0225H171.793H172.663H173.079H174.378C175.342 26.0225 176.31 26.059 177.282 26.1325C170.752 20.9398 162.649 18.1234 154.307 18.1456C145.964 18.1679 137.877 21.0277 131.375 26.2552C132.778 26.1036 134.189 26.026 135.601 26.0225Z" fill="white"/>
<path d="M119.307 44.8777C119.369 45.0614 119.442 45.2448 119.516 45.4286C119.589 45.6124 119.773 46.1639 119.92 46.5192C120.067 46.8745 120.091 46.9477 120.189 47.1683C120.287 47.3888 120.447 47.8176 120.594 48.1362C120.741 48.4547 120.802 48.5776 120.912 48.8104C121.022 49.0432 121.194 49.4107 121.341 49.7047L121.696 50.3783L122.162 51.2362L122.554 51.9098L123.056 52.7306L123.473 53.3802C123.657 53.6498 123.828 53.9192 124.012 54.1765C124.196 54.4338 124.306 54.6053 124.465 54.8136C124.625 55.0219 124.845 55.3283 125.041 55.5733C125.237 55.8184 125.347 55.9896 125.519 56.1979L126.119 56.9331L126.621 57.5211L127.283 58.2438L127.798 58.7954C128.03 59.0404 128.263 59.2733 128.508 59.5061L129.035 60.0205L129.795 60.7187L130.321 61.1847L131.204 61.9073L131.669 62.2992C132.061 62.6055 132.466 62.912 132.894 63.2061L133.09 63.3532C133.556 63.684 134.021 64.0023 134.512 64.3086C134.512 64.0881 134.512 63.8801 134.512 63.6595C134.512 63.439 134.512 63.3528 134.512 63.1935C134.512 63.0342 134.512 62.5812 134.585 62.2627C134.585 62.1524 134.585 62.0421 134.585 61.9319L134.732 60.7067C134.738 60.6047 134.738 60.5024 134.732 60.4004C134.732 60.0819 134.818 59.7755 134.879 59.457C134.94 59.1385 134.879 59.1509 134.965 58.9916C135.051 58.8323 135.051 58.4769 135.1 58.2318L135.21 57.7048C135.21 57.472 135.308 57.2395 135.369 57.0067C135.43 56.7739 135.455 56.6392 135.492 56.4677C135.528 56.2962 135.614 56.014 135.663 55.7935C135.712 55.5729 135.761 55.4263 135.822 55.2425L136.006 54.5809L136.178 54.0419C136.239 53.8213 136.313 53.6127 136.386 53.3922L136.57 52.8532C136.643 52.6327 136.717 52.4244 136.803 52.2161C136.888 52.0078 136.925 51.8609 136.999 51.6771L137.256 51.04C137.317 50.8685 137.391 50.697 137.464 50.5255C137.538 50.354 137.648 50.0847 137.746 49.8764L137.967 49.3859L138.297 48.6758C138.371 48.541 138.432 48.3936 138.493 48.2588C138.677 47.9035 138.861 47.5361 139.057 47.1808L139.277 46.7764L139.657 46.0903C139.743 45.931 139.841 45.7841 139.939 45.6248L140.294 45.0242C140.392 44.865 140.49 44.7061 140.601 44.5468C140.711 44.3876 140.833 44.1671 140.956 43.9833L141.287 43.4928L141.654 42.9538L141.997 42.4764L142.389 41.9493L142.745 41.4839L143.161 40.9695L143.529 40.5034C143.664 40.3319 143.811 40.1608 143.958 40.0015L144.337 39.56L144.791 39.0456L145.17 38.6412L145.673 38.1147L146.04 37.7348L146.653 37.1342L146.935 36.865C147.241 36.5832 147.535 36.3012 147.854 36.0317L148.148 35.7745L148.809 35.2109L149.201 34.8927L149.789 34.4267L150.218 34.0958L150.806 33.6675L151.247 33.3487L151.848 32.9323L152.301 32.626L152.62 32.4053L152.338 32.2707L151.897 32.0499L151.272 31.7562L150.818 31.5474L150.181 31.2656L149.74 31.082L149.054 30.8128L148.65 30.6531L147.829 30.3593L147.535 30.2612L146.42 29.9059L146.163 29.8203L145.293 29.5751L144.876 29.4769C144.631 29.4034 144.399 29.3423 144.154 29.2933L143.688 29.1832L143.002 29.0361L142.512 28.9379L141.838 28.8153L141.348 28.7423L140.674 28.6442L140.172 28.5706L139.486 28.4971H138.996L138.285 28.436H137.819H137.023H136.631H135.406C132.988 28.4367 130.576 28.6659 128.202 29.1216C123.888 33.4474 120.725 38.7842 119.001 44.6449C119.307 44.5959 119.307 44.7061 119.307 44.8777Z" fill="white"/>
<path d="M141.555 88.5917L141.482 88.4942C141.176 88.0531 140.869 87.5874 140.588 87.1218C140.552 87.0862 140.523 87.0446 140.502 86.9992C140.22 86.5459 139.938 86.0805 139.681 85.6149L139.595 85.4677C139.338 85.0022 139.081 84.5365 138.848 84.0709C138.814 84.0163 138.786 83.9593 138.762 83.8998C138.529 83.4342 138.297 82.9562 138.076 82.4784L138.002 82.3067C137.782 81.8289 137.574 81.3386 137.378 80.8608L137.304 80.6652C137.108 80.1874 136.937 79.6974 136.765 79.2073L136.692 79.0111C136.52 78.521 136.361 78.031 136.214 77.5287L136.14 77.3205C135.993 76.8304 135.858 76.3279 135.736 75.8255C135.736 75.752 135.736 75.6786 135.736 75.6174C135.613 75.115 135.503 74.6008 135.393 74.0985C135.399 74.0251 135.399 73.9511 135.393 73.8777C135.295 73.3754 135.197 72.8608 135.123 72.3463V72.1255C135.042 71.611 134.968 71.0967 134.903 70.5821C134.909 70.5087 134.909 70.4347 134.903 70.3614C134.903 69.8468 134.805 69.3202 134.768 68.7934C134.768 68.7321 134.768 68.6587 134.768 68.5852L134.695 67.0047V66.9311L134.56 66.845L134.143 66.5877L133.739 66.3431L133.335 66.0858L132.943 65.816C132.807 65.7333 132.676 65.643 132.55 65.5462L132.158 65.277L131.766 65.0072L131.387 64.7135L131.007 64.4437L130.627 64.15L130.259 63.8557L129.892 63.5494L129.537 63.2556L129.157 62.9493L128.814 62.643L128.458 62.3242L128.115 62.0179L127.76 61.6871L127.429 61.3688L127.086 61.0254C126.974 60.9255 126.868 60.8194 126.768 60.7072L126.425 60.3638L126.118 60.033C125.998 59.9207 125.883 59.8026 125.775 59.6782L125.481 59.3474L125.15 58.9795L124.856 58.6487C124.757 58.5166 124.651 58.3898 124.538 58.2688L124.256 57.926L123.95 57.5342C123.853 57.4253 123.763 57.3104 123.68 57.1908C123.571 57.0655 123.469 56.9349 123.374 56.799L123.104 56.4436L122.81 56.0392L122.565 55.6965L122.271 55.2675L122.026 54.9241C121.941 54.7771 121.843 54.6306 121.744 54.4958C121.646 54.361 121.597 54.2504 121.512 54.1279L121.242 53.699L121.022 53.3317L120.764 52.8908L120.544 52.5229C120.458 52.3758 120.372 52.2287 120.299 52.0694C120.225 51.9101 120.152 51.8246 120.091 51.7021C120.029 51.5796 119.931 51.396 119.846 51.2367L119.65 50.8688C119.576 50.7218 119.49 50.5626 119.417 50.4034L119.233 50.0235L119.012 49.5461C118.951 49.4236 118.89 49.3007 118.841 49.1782C118.792 49.0557 118.694 48.8478 118.62 48.6763L118.473 48.3574C118.094 50.497 117.901 52.6656 117.897 54.8386C117.909 62.4301 120.27 69.832 124.658 76.0271C129.045 82.2223 135.243 86.9065 142.401 89.437C141.947 89.1552 141.739 88.8735 141.555 88.5917Z" fill="white"/>
<path d="M190.759 50.4028C190.673 50.5498 190.599 50.7092 190.526 50.8562C190.452 51.0033 190.391 51.1133 190.33 51.2481L190.085 51.6896C190.023 51.8201 189.953 51.9463 189.877 52.0688C189.803 52.2159 189.717 52.3633 189.632 52.5103L189.411 52.8902L189.154 53.3185C189.08 53.441 189.007 53.5759 188.921 53.6984L188.664 54.1154L188.419 54.4952C188.333 54.63 188.247 54.7643 188.149 54.899C188.051 55.0338 187.99 55.1444 187.904 55.267L187.622 55.6714L187.365 56.0387L187.071 56.4305C186.988 56.554 186.898 56.6727 186.801 56.7858L186.507 57.1783L186.226 57.5336C186.128 57.6561 186.03 57.7904 185.919 57.9129L185.638 58.2563L185.319 58.6362L185.025 58.967L184.706 59.3343L184.4 59.6651L184.069 60.0204L183.763 60.3513C183.641 60.4615 183.53 60.5838 183.42 60.6941L183.101 61.0129L182.746 61.3557L182.415 61.6745L182.06 62.0054L181.729 62.3117L181.362 62.6299L181.019 62.9362L180.651 63.2425L180.296 63.5368L179.916 63.8431L179.548 64.1249L179.169 64.4312L178.801 64.7004L178.409 64.9947L178.029 65.2639L177.625 65.5337L177.245 65.8035L176.841 66.0727L176.437 66.3299L176.032 66.5872L175.628 66.8324L175.493 66.918V66.9916C175.493 67.5225 175.469 68.0493 175.42 68.5721C175.414 68.6414 175.414 68.711 175.42 68.7803C175.42 69.3071 175.334 69.8342 175.273 70.3488C175.273 70.4223 175.273 70.4954 175.273 70.569C175.273 71.0835 175.138 71.5984 175.064 72.113V72.3331C174.979 72.8477 174.881 73.3623 174.783 73.8646C174.788 73.938 174.788 74.0119 174.783 74.0853C174.685 74.5876 174.562 75.1025 174.44 75.6048C174.44 75.6661 174.44 75.7395 174.44 75.813C174.305 76.3153 174.17 76.8173 174.023 77.3074C174.018 77.3767 174.018 77.4462 174.023 77.5155L173.545 78.9986L173.472 79.1942C173.3 79.6842 173.116 80.1742 172.92 80.652L172.847 80.8483C172.651 81.3261 172.443 81.8164 172.234 82.2942C172.234 82.2942 172.234 82.404 172.148 82.4653C171.928 82.9431 171.707 83.4211 171.462 83.8867L171.389 84.0458C171.144 84.5236 170.899 84.989 170.629 85.4546L170.556 85.6018C170.286 86.0673 170.004 86.5327 169.723 86.9861L169.649 87.1087C169.355 87.5743 169.061 88.0277 168.755 88.481L168.681 88.5791L168.522 88.7999C175.27 86.0389 181.045 81.333 185.111 75.2812C189.178 69.2293 191.353 62.1047 191.359 54.8135C191.358 53.2859 191.264 51.7598 191.077 50.2437L190.759 50.4028Z" fill="white"/>
<path d="M164.638 89.9641L164.981 89.5352C165.214 89.2411 165.446 88.9594 165.667 88.6654L166.059 88.1264L166.635 87.3176C166.77 87.1215 166.904 86.9255 167.027 86.7295C167.149 86.5335 167.382 86.2028 167.541 85.9333C167.701 85.6637 167.799 85.517 167.921 85.3087L168.399 84.5125C168.522 84.3042 168.632 84.0833 168.754 83.8628L169.171 83.0666L169.514 82.3924C169.636 82.1228 169.771 81.8534 169.894 81.5716C170.016 81.2898 170.102 81.1182 170.2 80.8854C170.298 80.6527 170.433 80.3345 170.543 80.0527C170.653 79.7709 170.727 79.5993 170.825 79.3665L171.131 78.5087L171.376 77.8106C171.474 77.5165 171.56 77.2222 171.658 76.9282C171.756 76.6341 171.793 76.4631 171.854 76.2426C171.915 76.0221 172.026 75.6175 172.111 75.3112C172.197 75.0049 172.222 74.8704 172.271 74.6376C172.32 74.4048 172.43 73.9756 172.491 73.6326C172.552 73.2895 172.589 73.2286 172.626 73.0325C172.699 72.616 172.773 72.1994 172.834 71.8074C172.862 71.682 172.882 71.5551 172.895 71.4275C172.981 70.8884 173.042 70.3373 173.104 69.786V69.357C173.104 68.9895 173.165 68.6098 173.189 68.23L172.883 68.3765L172.393 68.6218L171.744 68.9281L171.266 69.1489L170.58 69.4426L170.114 69.6388L169.379 69.9325L168.963 70.0923L168.044 70.4231L167.787 70.5086L166.561 70.8885L166.255 70.974L165.373 71.2313L164.92 71.3419L164.16 71.5376L163.67 71.6482L162.947 71.8074L162.42 71.9055L161.71 72.0401L161.183 72.1256L160.472 72.2237L159.945 72.2973L159.21 72.3829H158.696H157.936C157.777 72.3829 157.618 72.3829 157.446 72.3829H156.613H156.196H154.971H153.746H153.342H152.496H152.006H151.247H150.732L149.997 72.2973L149.483 72.2237L148.76 72.1256L148.233 72.0401L147.522 71.9055L147.008 71.8074L146.26 71.6602L145.758 71.5501L144.998 71.3539L144.557 71.2438C144.263 71.1581 143.969 71.0846 143.675 70.9866L143.357 70.9005L142.132 70.5206L141.874 70.4231L140.968 70.1042L140.539 69.9325L139.804 69.6508L139.338 69.4551L138.664 69.1608L138.174 68.9401L137.525 68.6338L137.035 68.3891L136.729 68.2419C136.729 68.6095 136.729 68.9769 136.814 69.3445V69.7979C136.814 70.3493 136.937 70.9004 137.023 71.4395L137.096 71.8564C137.096 72.2607 137.219 72.665 137.304 73.0816C137.304 73.2899 137.39 73.4979 137.427 73.7061C137.464 73.9144 137.562 74.3678 137.647 74.6986C137.733 75.0294 137.758 75.1517 137.819 75.3722C137.88 75.5927 137.978 75.9973 138.064 76.3036C138.15 76.6099 138.199 76.757 138.272 76.9898C138.346 77.2226 138.456 77.5775 138.554 77.8716C138.652 78.1656 138.713 78.3375 138.787 78.5703C138.86 78.8031 138.995 79.1458 139.105 79.4276C139.216 79.7093 139.289 79.8932 139.375 80.1137C139.461 80.3343 139.608 80.6775 139.73 80.9471L140.024 81.6332C140.159 81.915 140.282 82.1844 140.416 82.454L140.747 83.1276C140.882 83.3971 141.029 83.6543 141.176 83.9238C141.323 84.1934 141.409 84.3652 141.531 84.5735C141.654 84.7818 141.838 85.1124 141.997 85.3697C142.156 85.627 142.242 85.7866 142.377 85.9949L142.891 86.7911L143.283 87.3792L143.859 88.188L144.251 88.727C144.484 89.021 144.717 89.3027 144.937 89.5968C145.158 89.8908 145.17 89.8909 145.292 90.0257L145.77 90.5892C151.905 92.0505 158.312 91.9151 164.381 90.1968L164.638 89.9641Z" fill="white"/>
</g>
<defs>
<clipPath id="clip0_2621_10327">
<rect width="555" height="91.5321" fill="white"/>
</clipPath>
</defs>
</svg>
